<svg width="102" height="63" viewBox="0 0 102 63" fill="none" xmlns="http://www.w3.org/2000/svg">
<path d="M51.1871 19.239C36.8325 19.239 25.1958 30.8757 25.1958 45.2303C25.1958 44.7109 77.1632 44.1951 77.1331 43.6832C76.3327 30.0488 65.0223 19.239 51.1871 19.239Z" fill="#A7D1F1" fill-opacity="0.5"/>
<path d="M76.8908 45.3187C76.8908 30.9641 65.2541 19.3274 50.8995 19.3274C36.5449 19.3274 24.9082 30.9641 24.9082 45.3187" stroke="#354F80" stroke-width="2.65217"/>
<line x1="1.32609" y1="43.9928" x2="100.473" y2="43.9928" stroke="#354F80" stroke-width="2.65217" stroke-linecap="round"/>
<line x1="35.9809" y1="61.6739" x2="64.7349" y2="61.6739" stroke="#354F80" stroke-width="2.65217" stroke-linecap="round"/>
<path d="M19.4937 53.4412H50.8998H65.2492M82.306 53.4412H74.4544" stroke="#354F80" stroke-width="2.65217" stroke-linecap="round" stroke-linejoin="round"/>
<path d="M24.9082 10.6638L30.3231 18.2446" stroke="#354F80" stroke-width="2.65217" stroke-linecap="round"/>
<path d="M51.9829 11.3159L51.9829 1.99985" stroke="#354F80" stroke-width="2.65217" stroke-linecap="round"/>
<path d="M9.74707 30.1572L18.6683 32.8408" stroke="#354F80" stroke-width="2.65217" stroke-linecap="round"/>
<path d="M91.2275 30.1572L82.3063 32.8408" stroke="#354F80" stroke-width="2.65217" stroke-linecap="round"/>
<path d="M72.5591 18.2446L77.9739 10.6638" stroke="#354F80" stroke-width="2.65217" stroke-linecap="round"/>
<path d="M45.7498 31.8369C45.7498 32.6529 45.55 33.3595 45.2617 33.84C44.9655 34.3337 44.6486 34.4891 44.4237 34.4891C44.1988 34.4891 43.882 34.3337 43.5857 33.84C43.2974 33.3595 43.0976 32.6529 43.0976 31.8369C43.0976 31.021 43.2974 30.3144 43.5857 29.8339C43.882 29.3402 44.1988 29.1848 44.4237 29.1848C44.6486 29.1848 44.9655 29.3402 45.2617 29.8339C45.55 30.3144 45.7498 31.021 45.7498 31.8369Z" fill="white" stroke="#354F80" stroke-width="1.32609"/>
<path d="M60.3372 31.8369C60.3372 32.6529 60.1374 33.3595 59.8491 33.84C59.5529 34.3337 59.236 34.4891 59.0111 34.4891C58.7862 34.4891 58.4694 34.3337 58.1731 33.84C57.8848 33.3595 57.685 32.6529 57.685 31.8369C57.685 31.021 57.8848 30.3144 58.1731 29.8339C58.4694 29.3402 58.7862 29.1848 59.0111 29.1848C59.236 29.1848 59.5529 29.3402 59.8491 29.8339C60.1374 30.3144 60.3372 31.021 60.3372 31.8369Z" fill="white" stroke="#354F80" stroke-width="1.32609"/>
<path d="M47.7393 39.1305C47.7393 39.1305 49.0653 37.8044 52.3806 37.8044C55.6958 37.8044 57.0219 39.1305 57.0219 39.1305" stroke="#354F80" stroke-width="1.32609"/>
<path d="M55.8542 36.3825C56.0534 35.9728 56.2376 35.5967 56.3965 35.2736C56.5453 35.558 56.7147 35.8863 56.8967 36.2467C57.5258 37.4927 58.2988 39.1109 58.8906 40.6255C59.142 41.2691 58.991 42.0411 58.4993 42.687C58.0107 43.3289 57.2364 43.7718 56.3733 43.7718C55.5104 43.7718 54.7134 43.32 54.2131 42.6706C53.7098 42.0172 53.5727 41.2619 53.8439 40.6546C54.4421 39.3145 55.2219 37.6829 55.8542 36.3825Z" fill="#A32566" stroke="white" stroke-width="1.32609"/>
</svg>
