						<svg width="207" height="128" viewBox="0 0 207 128" fill="none" xmlns="http://www.w3.org/2000/svg">
								<path opacity="0.06" d="M35.1548 59.6634C24.0977 71.8921 17.5806 88.9537 18.0199 105.649C18.0931 109.457 18.1664 112.679 19.997 116.047C24.0244 123.223 33.8367 127.251 41.379 127.544C59.7586 128.276 76.088 118.976 94.4677 119.782C106.55 120.294 119.657 127.69 131.886 125.86C144.115 124.029 158.687 119.855 169.304 111.58C184.243 99.8644 192.517 79.9469 194.641 59.8098C195.3 53.366 195.153 46.7024 193.323 40.8443C191.419 34.9863 187.684 30.0069 182.632 28.0298C176.334 25.6134 169.158 28.1763 162.641 31.2518C145.799 39.2334 130.055 51.4621 116.948 66.7663C110.431 74.3085 103.914 83.0956 95.3464 85.5853C82.4586 89.3198 76.8203 77.4573 71.2551 67.3521C67.5206 60.6153 61.8822 53.8785 54.7793 51.4621C46.7244 48.6795 41.1593 53.1463 35.5209 59.3705C35.4477 59.4437 35.3012 59.5169 35.1548 59.6634Z" fill="#A365A4"/>
								<path d="M109.689 47.2783C86.8239 47.2783 68.2881 65.8141 68.2881 88.6791C68.2881 88.0059 130.438 90.9088 150.75 91.6342C151.018 89.458 151.026 86.3667 151.018 86.2148C149.743 64.497 131.727 47.2783 109.689 47.2783Z" fill="white"/>
								<path d="M109.689 47.2783C86.8239 47.2783 68.2881 65.8141 68.2881 88.6791C68.2881 88.0059 130.438 90.9088 150.75 91.6342C151.018 89.458 151.026 86.3667 151.018 86.2148C149.743 64.497 131.727 47.2783 109.689 47.2783Z" fill="#D02591" fill-opacity="0.2"/>
								<path d="M144.828 90.2709C144.828 67.4059 126.292 48.8701 103.427 48.8701C80.5621 48.8701 62.0264 67.4059 62.0264 90.2709" stroke="black" stroke-width="1.45082"/>
								<line x1="23.077" y1="89.5453" x2="183.779" y2="89.5453" stroke="black" stroke-width="1.45082" stroke-linecap="round"/>
								<line x1="78.2772" y1="117.709" x2="126.852" y2="117.709" stroke="black" stroke-width="1.45082" stroke-linecap="round"/>
								<path d="M53.4023 103.209H103.428H126.285M153.454 103.209H140.948" stroke="black" stroke-width="1.45082" stroke-linecap="round" stroke-linejoin="round"/>
								<path d="M62.0264 35.0701L70.6515 47.1453" stroke="black" stroke-width="1.45082" stroke-linecap="round"/>
								<path d="M105.153 36.1086L105.153 21.2693" stroke="black" stroke-width="1.45082" stroke-linecap="round"/>
								<path d="M37.876 66.1204L52.0863 70.3949" stroke="black" stroke-width="1.45082" stroke-linecap="round"/>
								<path d="M167.665 66.1204L153.455 70.3949" stroke="black" stroke-width="1.45082" stroke-linecap="round"/>
								<path d="M137.93 47.145L146.555 35.0698" stroke="black" stroke-width="1.45082" stroke-linecap="round"/>
								<path d="M95.5568 68.7963C95.5568 70.1457 95.2271 71.3322 94.7321 72.1571C94.2285 72.9965 93.6338 73.3516 93.1137 73.3516C92.5937 73.3516 91.999 72.9965 91.4954 72.1571C91.0004 71.3322 90.6707 70.1457 90.6707 68.7963C90.6707 67.447 91.0004 66.2605 91.4954 65.4355C91.999 64.5961 92.5937 64.241 93.1137 64.241C93.6338 64.241 94.2285 64.5961 94.7321 65.4355C95.2271 66.2605 95.5568 67.447 95.5568 68.7963Z" stroke="black" stroke-width="1.45082"/>
								<path d="M118.791 68.7963C118.791 70.1457 118.461 71.3322 117.967 72.1571C117.463 72.9965 116.868 73.3516 116.348 73.3516C115.828 73.3516 115.233 72.9965 114.73 72.1571C114.235 71.3322 113.905 70.1457 113.905 68.7963C113.905 67.447 114.235 66.2605 114.73 65.4355C115.233 64.5961 115.828 64.241 116.348 64.241C116.868 64.241 117.463 64.5961 117.967 65.4355C118.461 66.2605 118.791 67.447 118.791 68.7963Z" stroke="black" stroke-width="1.45082"/>
								<path d="M98.3936 80.4136C98.3936 80.4136 100.506 78.3013 105.787 78.3013C111.067 78.3013 113.18 80.4136 113.18 80.4136" stroke="black" stroke-width="1.45082"/>
								<path d="M111.023 75.8919C111.47 74.9742 111.869 74.1619 112.175 73.5419C112.473 74.1045 112.854 74.8334 113.277 75.6712C114.281 77.6597 115.517 80.2479 116.466 82.6748C116.917 83.8305 116.634 85.1802 115.797 86.2791C114.964 87.3736 113.638 88.1375 112.148 88.1375C110.658 88.1374 109.296 87.3594 108.445 86.2545C107.59 85.1452 107.322 83.8137 107.817 82.7065C108.772 80.567 110.016 77.964 111.023 75.8919Z" fill="#BDDE9C"/>
								<path d="M111.023 75.8919C111.47 74.9742 111.869 74.1619 112.175 73.5419C112.473 74.1045 112.854 74.8334 113.277 75.6712C114.281 77.6597 115.517 80.2479 116.466 82.6748C116.917 83.8305 116.634 85.1802 115.797 86.2791C114.964 87.3736 113.638 88.1375 112.148 88.1375C110.658 88.1374 109.296 87.3594 108.445 86.2545C107.59 85.1452 107.322 83.8137 107.817 82.7065C108.772 80.567 110.016 77.964 111.023 75.8919Z" stroke="white" stroke-width="1.45082"/>
								<path d="M111.023 75.8919C111.47 74.9742 111.869 74.1619 112.175 73.5419C112.473 74.1045 112.854 74.8334 113.277 75.6712C114.281 77.6597 115.517 80.2479 116.466 82.6748C116.917 83.8305 116.634 85.1802 115.797 86.2791C114.964 87.3736 113.638 88.1375 112.148 88.1375C110.658 88.1374 109.296 87.3594 108.445 86.2545C107.59 85.1452 107.322 83.8137 107.817 82.7065C108.772 80.567 110.016 77.964 111.023 75.8919Z" stroke="black" stroke-width="1.45082"/>
								<path opacity="0.1" d="M15.6665 60.0072C29.9788 64.5612 34.4425 55.3427 47.5388 55.85C60.6351 56.3573 68.0478 62.7788 83.2906 52.8014C92.9911 43.9326 84.1224 31.4611 70.2648 31.4611C57.8349 28.1377 55.8534 20.3751 43.6586 20.3751C36.859 21.4332 31.5669 31.9039 21.764 31.4609C3.90874 30.6541 1.35425 55.4533 15.6665 60.0072Z" fill="#6D80EC"/>
								<path opacity="0.1" d="M167.111 45.2475C174.522 42.8895 176.718 41.3569 183.499 41.0942C190.28 40.8316 194.234 43.8124 202.126 48.9787C207.149 53.5709 202.557 60.0285 195.382 60.0285C188.946 61.7494 188.313 59.0942 181.999 59.0942C178.478 58.5464 175.344 59.7992 170.268 60.0286C161.023 60.4464 159.7 47.6055 167.111 45.2475Z" fill="#6D80EC"/>
								</svg>