<svg width="40" height="15" viewBox="0 0 40 15" fill="none" xmlns="http://www.w3.org/2000/svg">
<path d="M2.3592 1.65191C2.52807 0.696434 3.35839 0 4.32867 0H37.6155C38.8593 0 39.8015 1.12326 39.585 2.34809L37.6408 13.3481C37.4719 14.3036 36.6416 15 35.6713 15H2.38448C1.14067 15 0.19853 13.8767 0.415012 12.6519L2.3592 1.65191Z" fill="#0B87E8"/>
<path d="M8.15234 3.46875L6.66992 12H5.22852L6.71094 3.46875H8.15234ZM10.877 7.20117L10.6719 8.36719H6.92773L7.13281 7.20117H10.877ZM11.9961 3.46875L11.791 4.64062H7.57227L7.7832 3.46875H11.9961ZM13.1211 3.46875L15.9746 3.47461C16.4941 3.48633 16.959 3.58398 17.3691 3.76758C17.7832 3.95117 18.1016 4.22656 18.3242 4.59375C18.5508 4.96094 18.6406 5.42578 18.5938 5.98828C18.5586 6.44141 18.4414 6.82812 18.2422 7.14844C18.0469 7.46484 17.7891 7.73242 17.4688 7.95117C17.1523 8.16992 16.793 8.35156 16.3906 8.49609L15.916 8.70703H13.2031L13.3965 7.54102L15.2949 7.54688C15.6074 7.54688 15.8965 7.49023 16.1621 7.37695C16.4277 7.25977 16.6484 7.0918 16.8242 6.87305C17 6.65039 17.1094 6.37891 17.1523 6.05859C17.1914 5.76172 17.168 5.50977 17.082 5.30273C16.9961 5.0957 16.8555 4.9375 16.6602 4.82812C16.4648 4.71484 16.2227 4.6543 15.9336 4.64648L14.3574 4.64062L13.0801 12H11.6387L13.1211 3.46875ZM16.4023 12L15.1191 8.16797L16.5547 8.16211L17.9316 11.918V12H16.4023ZM24.5996 10.834L24.3945 12H19.9941L20.1934 10.834H24.5996ZM21.8867 3.46875L20.4043 12H18.9629L20.4453 3.46875H21.8867ZM24.6816 7.03125L24.4824 8.17969H20.6504L20.8555 7.03125H24.6816ZM25.8418 3.46875L25.6367 4.64062H21.2656L21.4766 3.46875H25.8418ZM31.1855 10.834L30.9805 12H26.5801L26.7793 10.834H31.1855ZM28.4727 3.46875L26.9902 12H25.5488L27.0312 3.46875H28.4727ZM31.2676 7.03125L31.0684 8.17969H27.2363L27.4414 7.03125H31.2676ZM32.4277 3.46875L32.2227 4.64062H27.8516L28.0625 3.46875H32.4277ZM35.0762 3.46875L33.8984 9.48633H32.709L33.6172 3.46875H35.0762ZM32.2109 11.3555C32.2109 11.125 32.2871 10.9375 32.4395 10.793C32.5918 10.6445 32.7793 10.5684 33.002 10.5645C33.2207 10.5605 33.4043 10.6289 33.5527 10.7695C33.7051 10.9062 33.7832 11.0859 33.7871 11.3086C33.7871 11.5312 33.7109 11.7168 33.5586 11.8652C33.4062 12.0137 33.2188 12.0879 32.9961 12.0879C32.7773 12.0918 32.5918 12.0254 32.4395 11.8887C32.291 11.752 32.2148 11.5742 32.2109 11.3555Z" fill="white"/>
</svg>
